<svg id="visual" viewBox="0 0 960 540" width="960" height="540" xmlns="http://www.w3.org/2000/svg" xmlns:xlink="http://www.w3.org/1999/xlink" version="1.1"><rect x="0" y="0" width="960" height="540" fill="#FAF3DD"></rect><defs><linearGradient id="grad1_0" x1="43.8%" y1="0%" x2="100%" y2="100%"><stop offset="14.444444444444446%" stop-color="#ffa69e" stop-opacity="1"></stop><stop offset="85.55555555555554%" stop-color="#ffa69e" stop-opacity="1"></stop></linearGradient></defs><defs><linearGradient id="grad1_1" x1="43.8%" y1="0%" x2="100%" y2="100%"><stop offset="14.444444444444446%" stop-color="#ffa69e" stop-opacity="1"></stop><stop offset="85.55555555555554%" stop-color="#fdc2a6" stop-opacity="1"></stop></linearGradient></defs><defs><linearGradient id="grad1_2" x1="43.8%" y1="0%" x2="100%" y2="100%"><stop offset="14.444444444444446%" stop-color="#f9dcbd" stop-opacity="1"></stop><stop offset="85.55555555555554%" stop-color="#fdc2a6" stop-opacity="1"></stop></linearGradient></defs><defs><linearGradient id="grad1_3" x1="43.8%" y1="0%" x2="100%" y2="100%"><stop offset="14.444444444444446%" stop-color="#f9dcbd" stop-opacity="1"></stop><stop offset="85.55555555555554%" stop-color="#faf3dd" stop-opacity="1"></stop></linearGradient></defs><defs><linearGradient id="grad2_0" x1="0%" y1="0%" x2="56.3%" y2="100%"><stop offset="14.444444444444446%" stop-color="#ffa69e" stop-opacity="1"></stop><stop offset="85.55555555555554%" stop-color="#ffa69e" stop-opacity="1"></stop></linearGradient></defs><defs><linearGradient id="grad2_1" x1="0%" y1="0%" x2="56.3%" y2="100%"><stop offset="14.444444444444446%" stop-color="#fdc2a6" stop-opacity="1"></stop><stop offset="85.55555555555554%" stop-color="#ffa69e" stop-opacity="1"></stop></linearGradient></defs><defs><linearGradient id="grad2_2" x1="0%" y1="0%" x2="56.3%" y2="100%"><stop offset="14.444444444444446%" stop-color="#fdc2a6" stop-opacity="1"></stop><stop offset="85.55555555555554%" stop-color="#f9dcbd" stop-opacity="1"></stop></linearGradient></defs><defs><linearGradient id="grad2_3" x1="0%" y1="0%" x2="56.3%" y2="100%"><stop offset="14.444444444444446%" stop-color="#faf3dd" stop-opacity="1"></stop><stop offset="85.55555555555554%" stop-color="#f9dcbd" stop-opacity="1"></stop></linearGradient></defs><g transform="translate(960, 0)"><path d="M0 513C-72.7 512.7 -145.4 512.4 -196.3 474C-247.3 435.5 -276.5 358.9 -301.2 301.2C-325.9 243.5 -346.1 204.7 -380.6 157.7C-415.2 110.6 -464.1 55.3 -513 0L0 0Z" fill="#f9e8cc"></path><path d="M0 384.8C-54.5 384.5 -109 384.3 -147.2 355.5C-185.5 326.6 -207.4 269.2 -225.9 225.9C-244.4 182.6 -259.6 153.5 -285.5 118.2C-311.4 83 -348.1 41.5 -384.7 0L0 0Z" fill="#fbcfb0"></path><path d="M0 256.5C-36.3 256.3 -72.7 256.2 -98.2 237C-123.6 217.8 -138.3 179.5 -150.6 150.6C-163 121.8 -173 102.4 -190.3 78.8C-207.6 55.3 -232 27.7 -256.5 0L0 0Z" fill="#ffb4a0"></path><path d="M0 128.3C-18.2 128.2 -36.3 128.1 -49.1 118.5C-61.8 108.9 -69.1 89.7 -75.3 75.3C-81.5 60.9 -86.5 51.2 -95.2 39.4C-103.8 27.7 -116 13.8 -128.2 0L0 0Z" fill="#ffa69e"></path></g><g transform="translate(0, 540)"><path d="M0 -513C47 -462.9 94.1 -412.8 164.6 -397.3C235 -381.7 328.9 -400.8 362.7 -362.7C396.5 -324.7 370.2 -229.6 385.3 -159.6C400.3 -89.6 456.6 -44.8 513 0L0 0Z" fill="#f9e8cc"></path><path d="M0 -384.7C35.3 -347.2 70.6 -309.6 123.4 -298C176.3 -286.3 246.7 -300.6 272.1 -272.1C297.4 -243.5 277.7 -172.2 288.9 -119.7C300.2 -67.2 342.5 -33.6 384.8 0L0 0Z" fill="#fbcfb0"></path><path d="M0 -256.5C23.5 -231.4 47 -206.4 82.3 -198.6C117.5 -190.9 164.5 -200.4 181.4 -181.4C198.3 -162.3 185.1 -114.8 192.6 -79.8C200.1 -44.8 228.3 -22.4 256.5 0L0 0Z" fill="#ffb4a0"></path><path d="M0 -128.2C11.8 -115.7 23.5 -103.2 41.1 -99.3C58.8 -95.4 82.2 -100.2 90.7 -90.7C99.1 -81.2 92.6 -57.4 96.3 -39.9C100.1 -22.4 114.2 -11.2 128.3 0L0 0Z" fill="#ffa69e"></path></g></svg>