<svg id="visual" viewBox="0 0 960 540" width="960" height="540" xmlns="http://www.w3.org/2000/svg" xmlns:xlink="http://www.w3.org/1999/xlink" version="1.1"><path d="M0 50L14.5 56.2C29 62.3 58 74.7 87.2 79.2C116.3 83.7 145.7 80.3 174.8 74.2C204 68 233 59 262 53.5C291 48 320 46 349 52.2C378 58.3 407 72.7 436.2 76.3C465.3 80 494.7 73 523.8 67.7C553 62.3 582 58.7 611 55C640 51.3 669 47.7 698 47.7C727 47.7 756 51.3 785.2 52.3C814.3 53.3 843.7 51.7 872.8 51.7C902 51.7 931 53.3 945.5 54.2L960 55L960 0L945.5 0C931 0 902 0 872.8 0C843.7 0 814.3 0 785.2 0C756 0 727 0 698 0C669 0 640 0 611 0C582 0 553 0 523.8 0C494.7 0 465.3 0 436.2 0C407 0 378 0 349 0C320 0 291 0 262 0C233 0 204 0 174.8 0C145.7 0 116.3 0 87.2 0C58 0 29 0 14.5 0L0 0Z" fill="#caaeeb"></path><path d="M0 136L14.5 138.7C29 141.3 58 146.7 87.2 149.3C116.3 152 145.7 152 174.8 146.7C204 141.3 233 130.7 262 134.3C291 138 320 156 349 162.3C378 168.7 407 163.3 436.2 164.2C465.3 165 494.7 172 523.8 165.7C553 159.3 582 139.7 611 137C640 134.3 669 148.7 698 157.7C727 166.7 756 170.3 785.2 174.8C814.3 179.3 843.7 184.7 872.8 181C902 177.3 931 164.7 945.5 158.3L960 152L960 53L945.5 52.2C931 51.3 902 49.7 872.8 49.7C843.7 49.7 814.3 51.3 785.2 50.3C756 49.3 727 45.7 698 45.7C669 45.7 640 49.3 611 53C582 56.7 553 60.3 523.8 65.7C494.7 71 465.3 78 436.2 74.3C407 70.7 378 56.3 349 50.2C320 44 291 46 262 51.5C233 57 204 66 174.8 72.2C145.7 78.3 116.3 81.7 87.2 77.2C58 72.7 29 60.3 14.5 54.2L0 48Z" fill="#be9ce6"></path><path d="M0 244L14.5 243.2C29 242.3 58 240.7 87.2 243.3C116.3 246 145.7 253 174.8 251.2C204 249.3 233 238.7 262 242.3C291 246 320 264 349 263C378 262 407 242 436.2 243.8C465.3 245.7 494.7 269.3 523.8 268.5C553 267.7 582 242.3 611 230.5C640 218.7 669 220.3 698 223C727 225.7 756 229.3 785.2 230.3C814.3 231.3 843.7 229.7 872.8 233.3C902 237 931 246 945.5 250.5L960 255L960 150L945.5 156.3C931 162.7 902 175.3 872.8 179C843.7 182.7 814.3 177.3 785.2 172.8C756 168.3 727 164.7 698 155.7C669 146.7 640 132.3 611 135C582 137.7 553 157.3 523.8 163.7C494.7 170 465.3 163 436.2 162.2C407 161.3 378 166.7 349 160.3C320 154 291 136 262 132.3C233 128.7 204 139.3 174.8 144.7C145.7 150 116.3 150 87.2 147.3C58 144.7 29 139.3 14.5 136.7L0 134Z" fill="#b18be1"></path><path d="M0 368L14.5 374.3C29 380.7 58 393.3 87.2 398.8C116.3 404.3 145.7 402.7 174.8 410.8C204 419 233 437 262 436C291 435 320 415 349 407.7C378 400.3 407 405.7 436.2 410.2C465.3 414.7 494.7 418.3 523.8 407.7C553 397 582 372 611 361.2C640 350.3 669 353.7 698 367.2C727 380.7 756 404.3 785.2 410.7C814.3 417 843.7 406 872.8 412.2C902 418.3 931 441.7 945.5 453.3L960 465L960 253L945.5 248.5C931 244 902 235 872.8 231.3C843.7 227.7 814.3 229.3 785.2 228.3C756 227.3 727 223.7 698 221C669 218.3 640 216.7 611 228.5C582 240.3 553 265.7 523.8 266.5C494.7 267.3 465.3 243.7 436.2 241.8C407 240 378 260 349 261C320 262 291 244 262 240.3C233 236.7 204 247.3 174.8 249.2C145.7 251 116.3 244 87.2 241.3C58 238.7 29 240.3 14.5 241.2L0 242Z" fill="#a17ad3"></path><path d="M0 541L14.5 541C29 541 58 541 87.2 541C116.3 541 145.7 541 174.8 541C204 541 233 541 262 541C291 541 320 541 349 541C378 541 407 541 436.2 541C465.3 541 494.7 541 523.8 541C553 541 582 541 611 541C640 541 669 541 698 541C727 541 756 541 785.2 541C814.3 541 843.7 541 872.8 541C902 541 931 541 945.5 541L960 541L960 463L945.5 451.3C931 439.7 902 416.3 872.8 410.2C843.7 404 814.3 415 785.2 408.7C756 402.3 727 378.7 698 365.2C669 351.7 640 348.3 611 359.2C582 370 553 395 523.8 405.7C494.7 416.3 465.3 412.7 436.2 408.2C407 403.7 378 398.3 349 405.7C320 413 291 433 262 434C233 435 204 417 174.8 408.8C145.7 400.7 116.3 402.3 87.2 396.8C58 391.3 29 378.7 14.5 372.3L0 366Z" fill="#9269c6"></path></svg>