<svg id="visual" viewBox="0 0 960 540" width="960" height="540" xmlns="http://www.w3.org/2000/svg" xmlns:xlink="http://www.w3.org/1999/xlink" version="1.1"><path d="M0 82L20 79.3C40 76.7 80 71.3 120 84.8C160 98.3 200 130.7 240 148.7C280 166.7 320 170.3 360 168.5C400 166.7 440 159.3 480 140.3C520 121.3 560 90.7 600 87.2C640 83.7 680 107.3 720 115.5C760 123.7 800 116.3 840 122.5C880 128.7 920 148.3 940 158.2L960 168L960 0L940 0C920 0 880 0 840 0C800 0 760 0 720 0C680 0 640 0 600 0C560 0 520 0 480 0C440 0 400 0 360 0C320 0 280 0 240 0C200 0 160 0 120 0C80 0 40 0 20 0L0 0Z" fill="#e9dec2"></path><path d="M0 195L20 183.3C40 171.7 80 148.3 120 155.7C160 163 200 201 240 219C280 237 320 235 360 240.3C400 245.7 440 258.3 480 235C520 211.7 560 152.3 600 147.8C640 143.3 680 193.7 720 213.5C760 233.3 800 222.7 840 220C880 217.3 920 222.7 940 225.3L960 228L960 166L940 156.2C920 146.3 880 126.7 840 120.5C800 114.3 760 121.7 720 113.5C680 105.3 640 81.7 600 85.2C560 88.7 520 119.3 480 138.3C440 157.3 400 164.7 360 166.5C320 168.3 280 164.7 240 146.7C200 128.7 160 96.3 120 82.8C80 69.3 40 74.7 20 77.3L0 80Z" fill="#e1d5b0"></path><path d="M0 276L20 275.2C40 274.3 80 272.7 120 300.7C160 328.7 200 386.3 240 404.3C280 422.3 320 400.7 360 386.2C400 371.7 440 364.3 480 342.7C520 321 560 285 600 287.8C640 290.7 680 332.3 720 363.8C760 395.3 800 416.7 840 426.5C880 436.3 920 434.7 940 433.8L960 433L960 226L940 223.3C920 220.7 880 215.3 840 218C800 220.7 760 231.3 720 211.5C680 191.7 640 141.3 600 145.8C560 150.3 520 209.7 480 233C440 256.3 400 243.7 360 238.3C320 233 280 235 240 217C200 199 160 161 120 153.7C80 146.3 40 169.7 20 181.3L0 193Z" fill="#d4c69a"></path><path d="M0 541L20 541C40 541 80 541 120 541C160 541 200 541 240 541C280 541 320 541 360 541C400 541 440 541 480 541C520 541 560 541 600 541C640 541 680 541 720 541C760 541 800 541 840 541C880 541 920 541 940 541L960 541L960 431L940 431.8C920 432.7 880 434.3 840 424.5C800 414.7 760 393.3 720 361.8C680 330.3 640 288.7 600 285.8C560 283 520 319 480 340.7C440 362.3 400 369.7 360 384.2C320 398.7 280 420.3 240 402.3C200 384.3 160 326.7 120 298.7C80 270.7 40 272.3 20 273.2L0 274Z" fill="#c2b180"></path></svg>